<svg xmlns="http://www.w3.org/2000/svg" width="200" height="68.086" viewBox="0 0 200 68.086">
  <g id="Group_38" data-name="Group 38" transform="translate(-1023.999 -41.546)">
    <g id="Group_34" data-name="Group 34">
      <g id="Group_32" data-name="Group 32">
        <g id="Group_31" data-name="Group 31">
          <g id="Group_30" data-name="Group 30">
            <path id="Path_9" data-name="Path 9" d="M1125.231,65.033V77.9h21.9l-28.558-36.353-.007.009L1090.034,77.9h21.883V65.033h5.979V77.9h1.356V65.033Zm-.042-1.382h-5.477l3.115-4.414A6.626,6.626,0,0,1,1125.189,63.651Zm-13.239,0a6.608,6.608,0,0,1,2.374-4.418l3.126,4.418Zm3.521-5.145.041-.056a6.411,6.411,0,0,1,6.146.015l.02.041-3.1,4.4Zm-15.4,28.727h-17.379l.007-.008,6.5-8.266h10.884a1.009,1.009,0,0,1,1,1.011v6.256A1.007,1.007,0,0,1,1100.071,87.233Zm54.388,0h-17.373a1.01,1.01,0,0,1-1.01-1.007V79.97a1.013,1.013,0,0,1,1-1.011h10.886Z" fill="#a38964"/>
          </g>
        </g>
      </g>
      <g id="Group_33" data-name="Group 33">
        <path id="Path_10" data-name="Path 10" d="M1109.018,87.147l-.864-1.805h-4.173l-.863,1.805h-1.549l3.792-7.76h1.416l3.79,7.76Zm-2.946-6.238-1.566,3.214h3.137Z" fill="#a38964"/>
        <path id="Path_11" data-name="Path 11" d="M1118.343,87.147V82.07l-2.19,5.077H1114.9l-2.182-5.077v5.077h-1.245v-7.76h1.489l2.581,6.2,2.593-6.2h1.454v7.76Z" fill="#a38964"/>
        <path id="Path_12" data-name="Path 12" d="M1122.335,84.054v3.093h-1.358v-7.76h6.491V80.92h-5.133V82.7h5.022v1.352Z" fill="#a38964"/>
        <path id="Path_13" data-name="Path 13" d="M1128.642,87.147v-7.76H1130V85.61h5.2v1.537Z" fill="#a38964"/>
      </g>
    </g>
    <g id="Group_37" data-name="Group 37">
      <g id="Group_35" data-name="Group 35">
        <path id="Path_14" data-name="Path 14" d="M1031.905,101.339l-.915-1.918h-4.432l-.916,1.918H1024l4.021-8.243h1.505l4.026,8.243Zm-3.123-6.628-1.668,3.416h3.33Z" fill="#fff"/>
        <path id="Path_15" data-name="Path 15" d="M1042.429,101.339V97.481a3.749,3.749,0,0,0-.028-.49,1.154,1.154,0,0,0-.1-.391.612.612,0,0,0-.237-.254.842.842,0,0,0-.411-.087h-1.033a.68.68,0,0,0-.809.794v4.286h-1.379V97.053a.839.839,0,0,0-.183-.6.8.8,0,0,0-.6-.193h-1.018a.663.663,0,0,0-.471.153.919.919,0,0,0-.242.468v4.459h-1.388V94.866h1.331V95.8a1.711,1.711,0,0,1,.514-.678,1.443,1.443,0,0,1,.907-.259h.447a2.574,2.574,0,0,1,1.286.271,1.467,1.467,0,0,1,.648.952,1.557,1.557,0,0,1,.556-.932,1.763,1.763,0,0,1,1.067-.291h.5a2.745,2.745,0,0,1,1.013.159,1.358,1.358,0,0,1,.626.477,2.09,2.09,0,0,1,.32.81,6.31,6.31,0,0,1,.087,1.146v3.881Z" fill="#fff"/>
        <path id="Path_16" data-name="Path 16" d="M1045.331,94.306V92.59h1.442v1.716Zm0,7.033V94.866h1.431v6.473Z" fill="#fff"/>
        <path id="Path_17" data-name="Path 17" d="M1053.081,101.339V97.25a1.338,1.338,0,0,0-.172-.746.712.712,0,0,0-.62-.245h-1.857a.688.688,0,0,0-.471.147,1,1,0,0,0-.245.474v4.459H1048.3V94.866h1.363V95.8a1.706,1.706,0,0,1,.545-.724,1.443,1.443,0,0,1,.823-.213h1.26a3.046,3.046,0,0,1,1.056.159,1.493,1.493,0,0,1,.683.477,2.011,2.011,0,0,1,.367.81,5.077,5.077,0,0,1,.114,1.146v3.881Z" fill="#fff"/>
        <path id="Path_18" data-name="Path 18" d="M1066.8,101.339V95.947l-2.327,5.392h-1.336l-2.316-5.392v5.392H1059.5V93.1h1.581l2.743,6.588,2.756-6.588h1.546v8.243Z" fill="#fff"/>
        <path id="Path_19" data-name="Path 19" d="M1071.794,101.339a2.3,2.3,0,0,1-1.686-.532,2.44,2.44,0,0,1-.52-1.744V97.145a2.446,2.446,0,0,1,.52-1.745,2.3,2.3,0,0,1,1.686-.534h1.909a2.307,2.307,0,0,1,1.7.534,2.437,2.437,0,0,1,.525,1.745v1.918a2.431,2.431,0,0,1-.525,1.744,2.3,2.3,0,0,1-1.7.532Zm2.7-4.194a.965.965,0,0,0-.192-.693.815.815,0,0,0-.6-.193h-1.909a.807.807,0,0,0-.6.193.957.957,0,0,0-.19.693v1.918a.97.97,0,0,0,.19.7.823.823,0,0,0,.6.191h1.909a.831.831,0,0,0,.6-.191.979.979,0,0,0,.192-.7Z" fill="#fff"/>
        <path id="Path_20" data-name="Path 20" d="M1082.189,101.339V97.25a1.313,1.313,0,0,0-.172-.746.706.706,0,0,0-.621-.245h-1.856a.683.683,0,0,0-.469.147.988.988,0,0,0-.243.474v4.459h-1.418V92.883l1.418-.544V95.8a1.678,1.678,0,0,1,.548-.724,1.463,1.463,0,0,1,.826-.213h1.194a3.055,3.055,0,0,1,1.06.159,1.5,1.5,0,0,1,.682.477,2.014,2.014,0,0,1,.372.81,5.412,5.412,0,0,1,.107,1.146v3.881Z" fill="#fff"/>
        <path id="Path_21" data-name="Path 21" d="M1086.81,101.339a2.132,2.132,0,0,1-1.436-.382,1.551,1.551,0,0,1-.422-1.2v-.71a1.447,1.447,0,0,1,.433-1.18,2.237,2.237,0,0,1,1.4-.353h1.986a2.073,2.073,0,0,1,.647.079,2.271,2.271,0,0,1,.386.174v-.757a.648.648,0,0,0-.243-.6,1.816,1.816,0,0,0-.832-.142H1085.4l.14-1.4h3.373a3.442,3.442,0,0,1,1.152.165,1.671,1.671,0,0,1,.7.436,1.5,1.5,0,0,1,.348.645,3.264,3.264,0,0,1,.095.791v4.436a.963.963,0,0,1-.6-.224,1.174,1.174,0,0,1-.372-.794,1.431,1.431,0,0,1-.5.73,1.551,1.551,0,0,1-1,.288Zm3-2.65a1.886,1.886,0,0,0-.416-.128,3.032,3.032,0,0,0-.63-.05h-1.738a.681.681,0,0,0-.493.149.83.83,0,0,0-.147.572.821.821,0,0,0,.147.561.654.654,0,0,0,.481.157h1.741a1.572,1.572,0,0,0,.688-.146.674.674,0,0,0,.367-.547Z" fill="#fff"/>
        <path id="Path_22" data-name="Path 22" d="M1100.6,101.339V97.481a4.35,4.35,0,0,0-.027-.49,1.25,1.25,0,0,0-.108-.391.6.6,0,0,0-.233-.254.854.854,0,0,0-.41-.087h-1.036a.684.684,0,0,0-.811.794v4.286h-1.379V97.053a.843.843,0,0,0-.18-.6.8.8,0,0,0-.608-.193h-1.012a.68.68,0,0,0-.476.153.952.952,0,0,0-.243.468v4.459h-1.385V94.866h1.335V95.8a1.693,1.693,0,0,1,.51-.678,1.449,1.449,0,0,1,.91-.259h.446a2.579,2.579,0,0,1,1.286.271,1.458,1.458,0,0,1,.644.952,1.582,1.582,0,0,1,.556-.932,1.777,1.777,0,0,1,1.068-.291h.5a2.737,2.737,0,0,1,1.013.159,1.376,1.376,0,0,1,.627.477,2.09,2.09,0,0,1,.317.81,6.478,6.478,0,0,1,.09,1.146v3.881Z" fill="#fff"/>
        <path id="Path_23" data-name="Path 23" d="M1111.365,101.339V97.481a4.141,4.141,0,0,0-.029-.49,1.226,1.226,0,0,0-.105-.391.607.607,0,0,0-.238-.254.825.825,0,0,0-.41-.087h-1.035a.68.68,0,0,0-.809.794v4.286h-1.377V97.053a.83.83,0,0,0-.183-.6.8.8,0,0,0-.606-.193h-1.015a.688.688,0,0,0-.475.153.926.926,0,0,0-.239.468v4.459h-1.388V94.866h1.333V95.8a1.694,1.694,0,0,1,.514-.678,1.439,1.439,0,0,1,.907-.259h.446a2.588,2.588,0,0,1,1.287.271,1.462,1.462,0,0,1,.644.952,1.584,1.584,0,0,1,.559-.932,1.773,1.773,0,0,1,1.068-.291h.5a2.764,2.764,0,0,1,1.015.159,1.334,1.334,0,0,1,.623.477,2,2,0,0,1,.32.81,6.3,6.3,0,0,1,.09,1.146v3.881Z" fill="#fff"/>
        <path id="Path_24" data-name="Path 24" d="M1115.93,101.339a2.121,2.121,0,0,1-1.433-.382,1.541,1.541,0,0,1-.424-1.2v-.71a1.463,1.463,0,0,1,.432-1.18,2.245,2.245,0,0,1,1.407-.353h1.984a2.117,2.117,0,0,1,.65.079,2.36,2.36,0,0,1,.384.174v-.757a.645.645,0,0,0-.247-.6,1.8,1.8,0,0,0-.831-.142h-3.332l.141-1.4h3.373a3.483,3.483,0,0,1,1.154.165,1.683,1.683,0,0,1,.7.436,1.433,1.433,0,0,1,.343.645,2.993,2.993,0,0,1,.1.791v4.436a.958.958,0,0,1-.6-.224,1.176,1.176,0,0,1-.375-.794,1.422,1.422,0,0,1-.494.73,1.557,1.557,0,0,1-1,.288Zm3-2.65a1.914,1.914,0,0,0-.417-.128,3.04,3.04,0,0,0-.629-.05h-1.739a.685.685,0,0,0-.494.149.829.829,0,0,0-.148.572.82.82,0,0,0,.148.561.653.653,0,0,0,.482.157h1.739a1.545,1.545,0,0,0,.686-.146.675.675,0,0,0,.372-.547Z" fill="#fff"/>
        <path id="Path_25" data-name="Path 25" d="M1124.023,101.339a3.032,3.032,0,0,1-1.06-.156,1.468,1.468,0,0,1-.681-.479,1.962,1.962,0,0,1-.371-.81,5.267,5.267,0,0,1-.112-1.141V97.458a5.323,5.323,0,0,1,.112-1.146,1.963,1.963,0,0,1,.371-.81,1.472,1.472,0,0,1,.681-.477,3.05,3.05,0,0,1,1.06-.159h1.126a1.478,1.478,0,0,1,.831.213,1.663,1.663,0,0,1,.548.724v-2.92l1.428-.544v9a.975.975,0,0,1-.336-.061.8.8,0,0,1-.3-.183,1.054,1.054,0,0,1-.226-.319,1.4,1.4,0,0,1-.113-.468,1.264,1.264,0,0,1-.554.777,2.225,2.225,0,0,1-1.166.254Zm2.505-4.459a.776.776,0,0,0-.27-.477.918.918,0,0,0-.565-.144h-1.67a.658.658,0,0,0-.649.3,2.163,2.163,0,0,0-.153.947v1.2a1.859,1.859,0,0,0,.18,1,.722.722,0,0,0,.622.251h1.67a.749.749,0,0,0,.582-.23,1.107,1.107,0,0,0,.253-.56Z" fill="#fff"/>
        <path id="Path_26" data-name="Path 26" d="M1134.414,98.057v3.282h-1.44V93.1h6.893v1.628h-5.453v1.9h5.337v1.436Z" fill="#fff"/>
        <path id="Path_27" data-name="Path 27" d="M1143.312,101.339a2.278,2.278,0,0,1-1.683-.532,2.431,2.431,0,0,1-.524-1.744V97.145a2.437,2.437,0,0,1,.524-1.745,2.283,2.283,0,0,1,1.683-.534h1.913a2.3,2.3,0,0,1,1.694.534,2.437,2.437,0,0,1,.522,1.745v1.918a2.431,2.431,0,0,1-.522,1.744,2.3,2.3,0,0,1-1.694.532Zm2.7-4.194a.945.945,0,0,0-.2-.693.8.8,0,0,0-.594-.193h-1.913a.809.809,0,0,0-.6.193.956.956,0,0,0-.193.693v1.918a.969.969,0,0,0,.193.7.826.826,0,0,0,.6.191h1.913a.82.82,0,0,0,.594-.191.959.959,0,0,0,.2-.7Z" fill="#fff"/>
        <path id="Path_28" data-name="Path 28" d="M1151.126,101.339a2.964,2.964,0,0,1-1.051-.156,1.46,1.46,0,0,1-.678-.479,1.988,1.988,0,0,1-.371-.81,5.335,5.335,0,0,1-.111-1.141V94.866h1.416v4.09a1.29,1.29,0,0,0,.179.748.708.708,0,0,0,.616.246h1.685a.623.623,0,0,0,.483-.191.921.921,0,0,0,.231-.469V94.866h1.431v6.473a.984.984,0,0,1-.339-.061.921.921,0,0,1-.3-.183,1.069,1.069,0,0,1-.225-.319,1.382,1.382,0,0,1-.112-.468,1.273,1.273,0,0,1-.549.777,2.161,2.161,0,0,1-1.148.254Z" fill="#fff"/>
        <path id="Path_29" data-name="Path 29" d="M1161.218,101.339V97.25a1.317,1.317,0,0,0-.168-.746.708.708,0,0,0-.619-.245h-1.856a.68.68,0,0,0-.472.147,1.026,1.026,0,0,0-.247.474v4.459h-1.419V94.866h1.365V95.8a1.7,1.7,0,0,1,.547-.724,1.424,1.424,0,0,1,.82-.213h1.262a3.047,3.047,0,0,1,1.056.159,1.482,1.482,0,0,1,.681.477,1.985,1.985,0,0,1,.368.81,5.13,5.13,0,0,1,.115,1.146v3.881Z" fill="#fff"/>
        <path id="Path_30" data-name="Path 30" d="M1166.341,101.339a3.015,3.015,0,0,1-1.054-.156,1.485,1.485,0,0,1-.685-.479,2.011,2.011,0,0,1-.369-.81,5.143,5.143,0,0,1-.113-1.141V97.458a5.2,5.2,0,0,1,.113-1.146,2.011,2.011,0,0,1,.369-.81,1.489,1.489,0,0,1,.685-.477,3.034,3.034,0,0,1,1.054-.159h1.13a1.476,1.476,0,0,1,.831.213,1.646,1.646,0,0,1,.545.724v-2.92l1.43-.544v9a.944.944,0,0,1-.334-.061.8.8,0,0,1-.3-.183,1.048,1.048,0,0,1-.224-.319,1.377,1.377,0,0,1-.114-.468,1.259,1.259,0,0,1-.553.777,2.231,2.231,0,0,1-1.165.254Zm2.506-4.459a.777.777,0,0,0-.265-.477.924.924,0,0,0-.564-.144h-1.677a.658.658,0,0,0-.645.3,2.114,2.114,0,0,0-.155.947v1.2a1.852,1.852,0,0,0,.183,1,.709.709,0,0,0,.617.251h1.677a.731.731,0,0,0,.574-.23,1.062,1.062,0,0,0,.255-.56Z" fill="#fff"/>
        <path id="Path_31" data-name="Path 31" d="M1173.48,101.339a2.125,2.125,0,0,1-1.435-.382,1.551,1.551,0,0,1-.421-1.2v-.71a1.446,1.446,0,0,1,.431-1.18,2.232,2.232,0,0,1,1.4-.353h1.984a2.11,2.11,0,0,1,.649.079,2.211,2.211,0,0,1,.387.174v-.757a.643.643,0,0,0-.247-.6,1.809,1.809,0,0,0-.834-.142h-3.327l.137-1.4h3.375a3.478,3.478,0,0,1,1.153.165,1.708,1.708,0,0,1,.7.436,1.494,1.494,0,0,1,.343.645,3.039,3.039,0,0,1,.1.791v4.436a.972.972,0,0,1-.6-.224,1.181,1.181,0,0,1-.376-.794,1.427,1.427,0,0,1-.487.73,1.578,1.578,0,0,1-1,.288Zm3-2.65a1.953,1.953,0,0,0-.416-.128,3.022,3.022,0,0,0-.629-.05h-1.741a.69.69,0,0,0-.494.149.836.836,0,0,0-.147.572.827.827,0,0,0,.147.561.661.661,0,0,0,.485.157h1.739a1.563,1.563,0,0,0,.686-.146.679.679,0,0,0,.37-.547Z" fill="#fff"/>
        <path id="Path_32" data-name="Path 32" d="M1182.349,101.268a1.173,1.173,0,0,1-.337.13,2.086,2.086,0,0,1-.5.063,1.688,1.688,0,0,1-1.563-.786,4.642,4.642,0,0,1-.469-2.33v-2.29h-.648l.169-1.189h.479V93.43l1.431-.527v1.963h1.2l-.17,1.189h-1.026v2.29a2.778,2.778,0,0,0,.234,1.287.82.82,0,0,0,.781.424,1.016,1.016,0,0,0,.641-.165Z" fill="#fff"/>
        <path id="Path_33" data-name="Path 33" d="M1183.62,94.306V92.59h1.437v1.716Zm0,7.033V94.866h1.428v6.473Z" fill="#fff"/>
        <path id="Path_34" data-name="Path 34" d="M1188.784,101.339a2.278,2.278,0,0,1-1.685-.532,2.422,2.422,0,0,1-.527-1.744V97.145a2.428,2.428,0,0,1,.527-1.745,2.282,2.282,0,0,1,1.685-.534h1.906a2.306,2.306,0,0,1,1.7.534,2.437,2.437,0,0,1,.521,1.745v1.918a2.431,2.431,0,0,1-.521,1.744,2.3,2.3,0,0,1-1.7.532Zm2.7-4.194a.975.975,0,0,0-.192-.693.81.81,0,0,0-.6-.193h-1.906a.809.809,0,0,0-.6.193.97.97,0,0,0-.192.693v1.918a.984.984,0,0,0,.192.7.826.826,0,0,0,.6.191h1.906a.827.827,0,0,0,.6-.191.989.989,0,0,0,.192-.7Z" fill="#fff"/>
        <path id="Path_35" data-name="Path 35" d="M1199.177,101.339V97.25A1.312,1.312,0,0,0,1199,96.5a.7.7,0,0,0-.618-.245h-1.855a.676.676,0,0,0-.469.147.964.964,0,0,0-.246.474v4.459H1194.4V94.866h1.365V95.8a1.656,1.656,0,0,1,.542-.724,1.425,1.425,0,0,1,.821-.213h1.259a3.075,3.075,0,0,1,1.059.159,1.482,1.482,0,0,1,.681.477,2.069,2.069,0,0,1,.371.81,5.343,5.343,0,0,1,.108,1.146v3.881Z" fill="#fff"/>
        <path id="Path_36" data-name="Path 36" d="M1205.613,101.339V93.1h1.438V99.71h5.529v1.629Z" fill="#fff"/>
        <path id="Path_37" data-name="Path 37" d="M1216.621,101.268a1.132,1.132,0,0,1-.335.13,2.077,2.077,0,0,1-.508.063,1.677,1.677,0,0,1-1.556-.786,4.606,4.606,0,0,1-.471-2.33v-2.29h-.651l.172-1.189h.479V93.43l1.434-.527v1.963h1.192l-.173,1.189h-1.019v2.29a2.767,2.767,0,0,0,.233,1.287.814.814,0,0,0,.778.424,1,1,0,0,0,.64-.165Z" fill="#fff"/>
        <path id="Path_38" data-name="Path 38" d="M1220.058,101.339a3.024,3.024,0,0,1-1.056-.156,1.5,1.5,0,0,1-.682-.479,2.025,2.025,0,0,1-.369-.81,5.145,5.145,0,0,1-.111-1.141V97.458a5.2,5.2,0,0,1,.111-1.146,2.025,2.025,0,0,1,.369-.81,1.5,1.5,0,0,1,.682-.477,3.042,3.042,0,0,1,1.056-.159h1.134a1.47,1.47,0,0,1,.828.213,1.647,1.647,0,0,1,.546.724v-2.92l1.433-.544v9a.944.944,0,0,1-.337-.061.859.859,0,0,1-.3-.183,1.1,1.1,0,0,1-.221-.319,1.312,1.312,0,0,1-.114-.468,1.278,1.278,0,0,1-.553.777,2.222,2.222,0,0,1-1.164.254Zm2.508-4.459a.782.782,0,0,0-.265-.477.924.924,0,0,0-.565-.144h-1.678a.654.654,0,0,0-.643.3,2.146,2.146,0,0,0-.154.947v1.2a1.892,1.892,0,0,0,.178,1,.72.72,0,0,0,.619.251h1.678a.728.728,0,0,0,.576-.23,1.076,1.076,0,0,0,.254-.56Z" fill="#fff"/>
      </g>
      <g id="Group_36" data-name="Group 36">
        <path id="Path_39" data-name="Path 39" d="M1042.776,109.632l-.569-1.06h-2.75l-.57,1.06h-1.02l2.5-4.559h.934l2.5,4.559Zm-1.941-3.664-1.034,1.888h2.068Z" fill="#fff"/>
        <path id="Path_40" data-name="Path 40" d="M1047.733,109.632a2.662,2.662,0,0,1-.682-.073.9.9,0,0,1-.434-.242.967.967,0,0,1-.233-.453,3.075,3.075,0,0,1-.069-.709v-1.6a3.069,3.069,0,0,1,.069-.709,1,1,0,0,1,.233-.457.871.871,0,0,1,.434-.242,2.82,2.82,0,0,1,.682-.07h2.558a1.284,1.284,0,0,1,.441.07,1.188,1.188,0,0,1,.321.172,1.012,1.012,0,0,1,.212.219,1.2,1.2,0,0,1,.119.209l-.57.583a.662.662,0,0,0-.192-.242.6.6,0,0,0-.391-.109h-2.492a.553.553,0,0,0-.416.126.647.647,0,0,0-.12.45v1.61a1.316,1.316,0,0,0,.02.252.4.4,0,0,0,.076.179.332.332,0,0,0,.162.109.885.885,0,0,0,.278.037h2.526a.584.584,0,0,0,.39-.11.7.7,0,0,0,.186-.241l.57.576a1.321,1.321,0,0,1-.12.209.98.98,0,0,1-.211.218,1.211,1.211,0,0,1-.322.173,1.285,1.285,0,0,1-.441.069Z" fill="#fff"/>
        <path id="Path_41" data-name="Path 41" d="M1053.5,109.632a2.711,2.711,0,0,1-.689-.073.923.923,0,0,1-.437-.245.957.957,0,0,1-.232-.457,3.172,3.172,0,0,1-.066-.7v-1.6a3.172,3.172,0,0,1,.066-.7.952.952,0,0,1,.232-.457.933.933,0,0,1,.437-.246,2.757,2.757,0,0,1,.689-.073h2.406a2.714,2.714,0,0,1,.679.073.928.928,0,0,1,.441.246.975.975,0,0,1,.235.457,3.03,3.03,0,0,1,.07.7v1.6a3.03,3.03,0,0,1-.07.7.98.98,0,0,1-.235.457.918.918,0,0,1-.441.245,2.668,2.668,0,0,1-.679.073Zm2.936-3.074a.667.667,0,0,0-.119-.461.572.572,0,0,0-.418-.122h-2.4a.571.571,0,0,0-.417.122.672.672,0,0,0-.119.461v1.6a1.214,1.214,0,0,0,.027.282.368.368,0,0,0,.089.175.344.344,0,0,0,.166.094,1.067,1.067,0,0,0,.254.026h2.4a.579.579,0,0,0,.421-.12.66.66,0,0,0,.116-.457Z" fill="#fff"/>
        <path id="Path_42" data-name="Path 42" d="M1062.186,109.632l-3.215-3.359v3.359h-.855v-4.559h.961l3.128,3.3v-3.3h.861v4.559Z" fill="#fff"/>
        <path id="Path_43" data-name="Path 43" d="M1065.254,109.632a2.664,2.664,0,0,1-.683-.073.907.907,0,0,1-.434-.242.956.956,0,0,1-.232-.453,3.023,3.023,0,0,1-.069-.709v-1.6a3.017,3.017,0,0,1,.069-.709.985.985,0,0,1,.232-.457.876.876,0,0,1,.434-.242,2.822,2.822,0,0,1,.683-.07h2.557a1.277,1.277,0,0,1,.44.07,1.211,1.211,0,0,1,.322.172.989.989,0,0,1,.212.219,1.279,1.279,0,0,1,.12.209l-.571.583a.663.663,0,0,0-.192-.242.6.6,0,0,0-.391-.109h-2.491a.559.559,0,0,0-.418.126.658.658,0,0,0-.119.45v1.61a1.4,1.4,0,0,0,.02.252.41.41,0,0,0,.076.179.335.335,0,0,0,.163.109.876.876,0,0,0,.278.037h2.524a.588.588,0,0,0,.392-.11.7.7,0,0,0,.185-.241l.57.576a1.236,1.236,0,0,1-.119.209.97.97,0,0,1-.213.218,1.189,1.189,0,0,1-.321.173,1.282,1.282,0,0,1-.44.069Z" fill="#fff"/>
        <path id="Path_44" data-name="Path 44" d="M1069.607,109.632v-4.559h4.38v.9H1070.5v1.007h3.386v.735H1070.5v1.021h3.486v.894Z" fill="#fff"/>
        <path id="Path_45" data-name="Path 45" d="M1078.6,109.632l-1.577-1.491h-1.438v1.491h-.9v-4.559h3.723a2.122,2.122,0,0,1,.614.077.874.874,0,0,1,.4.242,1,1,0,0,1,.223.437,2.747,2.747,0,0,1,.069.656v.278a2.353,2.353,0,0,1-.083.683.855.855,0,0,1-.268.417,1.055,1.055,0,0,1-.477.209,3.814,3.814,0,0,1-.716.056l1.69,1.5Zm.225-3a1.215,1.215,0,0,0-.076-.493c-.051-.109-.173-.163-.368-.163h-2.8v1.412h2.8a.426.426,0,0,0,.341-.12.641.641,0,0,0,.1-.417Z" fill="#fff"/>
        <path id="Path_46" data-name="Path 46" d="M1084.463,109.632l-3.214-3.359v3.359h-.855v-4.559h.961l3.128,3.3v-3.3h.861v4.559Z" fill="#fff"/>
        <path id="Path_47" data-name="Path 47" d="M1089.592,109.632a2.694,2.694,0,0,1-.689-.073.91.91,0,0,1-.437-.245.941.941,0,0,1-.232-.457,3.1,3.1,0,0,1-.067-.7v-1.6a3.1,3.1,0,0,1,.067-.7.936.936,0,0,1,.232-.457.919.919,0,0,1,.437-.246,2.74,2.74,0,0,1,.689-.073h2.4a2.715,2.715,0,0,1,.679.073.932.932,0,0,1,.441.246.974.974,0,0,1,.235.457,2.977,2.977,0,0,1,.07.7v1.6a2.977,2.977,0,0,1-.07.7.979.979,0,0,1-.235.457.922.922,0,0,1-.441.245,2.669,2.669,0,0,1-.679.073Zm2.935-3.074a.672.672,0,0,0-.119-.461.571.571,0,0,0-.417-.122h-2.4a.568.568,0,0,0-.417.122.661.661,0,0,0-.12.461v1.6a1.207,1.207,0,0,0,.027.282.368.368,0,0,0,.089.175.34.34,0,0,0,.165.094,1.084,1.084,0,0,0,.256.026h2.4a.576.576,0,0,0,.42-.12.665.665,0,0,0,.116-.457Z" fill="#fff"/>
        <path id="Path_48" data-name="Path 48" d="M1095.1,107.817v1.815h-.9v-4.559h4.281v.9H1095.1v1.046h3.313v.8Z" fill="#fff"/>
        <path id="Path_49" data-name="Path 49" d="M1105.773,109.632l-.569-1.06h-2.751l-.569,1.06h-1.02l2.5-4.559h.935l2.5,4.559Zm-1.941-3.664-1.034,1.888h2.068Z" fill="#fff"/>
        <path id="Path_50" data-name="Path 50" d="M1111.79,109.632v-2.981l-1.445,2.981h-.828l-1.438-2.981v2.981h-.821v-4.559h.98l1.7,3.645,1.709-3.645h.961v4.559Z" fill="#fff"/>
        <path id="Path_51" data-name="Path 51" d="M1113.42,109.632v-4.559h.895v4.559Z" fill="#fff"/>
        <path id="Path_52" data-name="Path 52" d="M1119.192,109.632l-3.214-3.359v3.359h-.854v-4.559h.96l3.128,3.3v-3.3h.861v4.559Z" fill="#fff"/>
        <path id="Path_53" data-name="Path 53" d="M1127.429,109.632v-2.981l-1.445,2.981h-.829l-1.437-2.981v2.981h-.822v-4.559h.981l1.7,3.645,1.709-3.645h.961v4.559Z" fill="#fff"/>
        <path id="Path_54" data-name="Path 54" d="M1130.45,109.632a2.7,2.7,0,0,1-.689-.073.914.914,0,0,1-.437-.245.941.941,0,0,1-.232-.457,3.1,3.1,0,0,1-.067-.7v-1.6a3.1,3.1,0,0,1,.067-.7.936.936,0,0,1,.232-.457.923.923,0,0,1,.437-.246,2.745,2.745,0,0,1,.689-.073h2.406a2.727,2.727,0,0,1,.679.073.929.929,0,0,1,.44.246.975.975,0,0,1,.235.457,2.976,2.976,0,0,1,.07.7v1.6a2.976,2.976,0,0,1-.07.7.98.98,0,0,1-.235.457.919.919,0,0,1-.44.245,2.681,2.681,0,0,1-.679.073Zm2.935-3.074a.667.667,0,0,0-.119-.461.569.569,0,0,0-.417-.122h-2.4a.568.568,0,0,0-.417.122.667.667,0,0,0-.119.461v1.6a1.221,1.221,0,0,0,.026.282.369.369,0,0,0,.089.175.345.345,0,0,0,.165.094,1.092,1.092,0,0,0,.256.026h2.4a.576.576,0,0,0,.42-.12.66.66,0,0,0,.116-.457Z" fill="#fff"/>
        <path id="Path_55" data-name="Path 55" d="M1138.667,109.632v-1.881h-2.717v1.881h-.881v-4.559h.881v1.856h2.717v-1.856h.881v4.559Z" fill="#fff"/>
        <path id="Path_56" data-name="Path 56" d="M1144.935,109.632l-.57-1.06h-2.75l-.57,1.06h-1.02l2.5-4.559h.935l2.5,4.559Zm-1.941-3.664-1.034,1.888h2.067Z" fill="#fff"/>
        <path id="Path_57" data-name="Path 57" d="M1150.952,109.632v-2.981l-1.445,2.981h-.828l-1.438-2.981v2.981h-.821v-4.559h.98l1.7,3.645,1.71-3.645h.96v4.559Z" fill="#fff"/>
        <path id="Path_58" data-name="Path 58" d="M1157.081,109.632v-2.981l-1.444,2.981h-.829l-1.437-2.981v2.981h-.822v-4.559h.981l1.7,3.645,1.709-3.645h.961v4.559Z" fill="#fff"/>
        <path id="Path_59" data-name="Path 59" d="M1163.27,109.632l-.57-1.06h-2.749l-.571,1.06h-1.02l2.5-4.559h.934l2.5,4.559Zm-1.941-3.664-1.034,1.888h2.067Z" fill="#fff"/>
        <path id="Path_60" data-name="Path 60" d="M1164.754,109.632v-4.559h3.837a2.782,2.782,0,0,1,.692.073.891.891,0,0,1,.438.249,1.025,1.025,0,0,1,.232.457,3,3,0,0,1,.069.7v1.6a3.035,3.035,0,0,1-.069.7,1,1,0,0,1-.232.457.893.893,0,0,1-.438.245,2.735,2.735,0,0,1-.692.073Zm4.374-3.074a.672.672,0,0,0-.119-.461.572.572,0,0,0-.418-.122h-2.936v2.763h2.936a.578.578,0,0,0,.421-.12.665.665,0,0,0,.116-.457Z" fill="#fff"/>
        <path id="Path_61" data-name="Path 61" d="M1177.1,109.632l-.027-.556a.524.524,0,0,1-.09.2.754.754,0,0,1-.178.178.971.971,0,0,1-.262.13,1.118,1.118,0,0,1-.345.049h-1.935a2.95,2.95,0,0,1-.7-.069.865.865,0,0,1-.434-.242.965.965,0,0,1-.222-.454,3.345,3.345,0,0,1-.063-.712v-1.6a3.228,3.228,0,0,1,.063-.692.986.986,0,0,1,.222-.457.885.885,0,0,1,.434-.252,2.67,2.67,0,0,1,.7-.077h2.313a1.255,1.255,0,0,1,.437.07,1.2,1.2,0,0,1,.318.172.988.988,0,0,1,.212.219,1.279,1.279,0,0,1,.12.209l-.563.583a.792.792,0,0,0-.193-.242.583.583,0,0,0-.391-.109h-2.246a.576.576,0,0,0-.424.119.682.682,0,0,0-.113.457v1.471a2.34,2.34,0,0,0,.024.378.438.438,0,0,0,.086.215.29.29,0,0,0,.165.1,1.257,1.257,0,0,0,.262.023h2.074a.908.908,0,0,0,.523-.11.375.375,0,0,0,.146-.321v-.583H1175.3v-.742h2.551v2.65Z" fill="#fff"/>
        <path id="Path_62" data-name="Path 62" d="M1182.533,109.632l-1.577-1.491h-1.438v1.491h-.9v-4.559h3.724a2.11,2.11,0,0,1,.613.077.868.868,0,0,1,.4.242,1,1,0,0,1,.223.437,2.7,2.7,0,0,1,.069.656v.278a2.316,2.316,0,0,1-.083.683.848.848,0,0,1-.268.417,1.051,1.051,0,0,1-.477.209,3.813,3.813,0,0,1-.716.056l1.69,1.5Zm.225-3a1.213,1.213,0,0,0-.076-.493c-.051-.109-.173-.163-.368-.163h-2.8v1.412h2.8a.425.425,0,0,0,.341-.12.642.642,0,0,0,.1-.417Z" fill="#fff"/>
        <path id="Path_63" data-name="Path 63" d="M1185.753,109.632a2.7,2.7,0,0,1-.689-.073.915.915,0,0,1-.437-.245.949.949,0,0,1-.232-.457,3.165,3.165,0,0,1-.066-.7v-1.6a3.165,3.165,0,0,1,.066-.7.945.945,0,0,1,.232-.457.924.924,0,0,1,.437-.246,2.745,2.745,0,0,1,.689-.073h2.406a2.726,2.726,0,0,1,.679.073.933.933,0,0,1,.441.246.975.975,0,0,1,.235.457,3.035,3.035,0,0,1,.069.7v1.6a3.035,3.035,0,0,1-.069.7.98.98,0,0,1-.235.457.923.923,0,0,1-.441.245,2.68,2.68,0,0,1-.679.073Zm2.936-3.074a.672.672,0,0,0-.119-.461.572.572,0,0,0-.418-.122h-2.4a.569.569,0,0,0-.417.122.667.667,0,0,0-.119.461v1.6a1.214,1.214,0,0,0,.026.282.378.378,0,0,0,.09.175.341.341,0,0,0,.165.094,1.081,1.081,0,0,0,.255.026h2.4a.58.58,0,0,0,.421-.12.665.665,0,0,0,.116-.457Z" fill="#fff"/>
        <path id="Path_64" data-name="Path 64" d="M1191.737,109.632a2.231,2.231,0,0,1-.64-.079.934.934,0,0,1-.424-.255,1.049,1.049,0,0,1-.235-.448,2.621,2.621,0,0,1-.072-.662v-3.115h.887v3.115a.651.651,0,0,0,.109.42.466.466,0,0,0,.375.13h2.226a.466.466,0,0,0,.375-.13.645.645,0,0,0,.109-.42v-3.115h.9v3.115a2.573,2.573,0,0,1-.073.662,1.04,1.04,0,0,1-.236.448.928.928,0,0,1-.427.255,2.263,2.263,0,0,1-.643.079Z" fill="#fff"/>
        <path id="Path_65" data-name="Path 65" d="M1197.018,108.155v1.477h-.894v-4.559h3.419a2.63,2.63,0,0,1,.655.07.841.841,0,0,1,.654.653,2.678,2.678,0,0,1,.069.662v.411a2.241,2.241,0,0,1-.069.6.867.867,0,0,1-.229.4.937.937,0,0,1-.425.222,2.63,2.63,0,0,1-.655.07Zm3.015-1.7a.515.515,0,0,0-.109-.377.542.542,0,0,0-.381-.106h-2.525v1.365h2.525a.532.532,0,0,0,.381-.11.486.486,0,0,0,.109-.354Z" fill="#fff"/>
      </g>
    </g>
  </g>
</svg>
